<svg xmlns="http://www.w3.org/2000/svg" width="640" height="900" viewBox="0 0 640 900" fill="none">
  <rect width="640" height="900" fill="#f8f6f3"/>
  <path d="M320 140c-40 0-72 30-72 70 0 32 12 52 34 70l-64 120c-10 18-6 41 9 55l35 32-78 182c-10 23 6 49 31 49h240c25 0 41-26 31-49l-78-182 35-32c15-14 19-37 9-55l-64-120c22-18 34-38 34-70 0-40-32-70-72-70z" fill="#ede4d9" stroke="#d0b290" stroke-width="6"/>
  <path d="M270 270h100l-20 44c-8 18-28 26-46 18-8-4-14-10-18-18l-16-44z" fill="#d8c3a5" opacity="0.65"/>
  <path d="M222 514c31 42 75 66 98 66 21 0 66-24 96-64l-28 134H252l-30-136z" fill="#ffffff" opacity="0.9"/>
  <circle cx="320" cy="214" r="12" fill="#c6a276"/>
  <text x="50%" y="820" text-anchor="middle" font-family="'Playfair Display', serif" font-size="36" fill="#c19a72">Mujeres Bridal</text>
</svg>
